<?xml version="1.0" standalone="no"?>
<!DOCTYPE svg PUBLIC "-//W3C//DTD SVG 20010904//EN"
 "http://www.w3.org/TR/2001/REC-SVG-20010904/DTD/svg10.dtd">
<svg version="1.0" xmlns="http://www.w3.org/2000/svg"
 width="400.000000pt" height="400.000000pt" viewBox="0 0 400.000000 400.000000"
 preserveAspectRatio="xMidYMid meet">

<g transform="translate(0.000000,400.000000) scale(0.100000,-0.100000)"
fill="#000000" stroke="none">
<path d="M2000 2815 c0 -20 5 -25 25 -25 l25 0 0 -615 0 -615 151 0 c138 0
150 1 147 18 -2 10 -14 18 -31 20 l-27 3 0 173 c0 143 3 176 15 186 9 7 17 11
18 9 4 -5 46 -116 106 -274 l48 -130 121 -3 122 -3 -53 113 c-30 62 -93 197
-141 299 l-87 186 96 136 c97 137 97 137 137 137 35 0 39 2 36 23 -3 21 -6 22
-145 25 l-143 3 0 -26 c0 -22 4 -25 35 -25 19 0 35 -3 35 -6 0 -4 -44 -75 -97
-157 l-98 -151 -3 362 -2 362 -145 0 -145 0 0 -25z"/>
<path d="M570 2790 c0 -17 7 -20 40 -20 l40 0 0 -585 0 -585 -35 0 c-28 0 -35
-4 -35 -20 0 -19 7 -20 238 -20 230 0 239 1 289 25 62 28 128 93 164 161 15
27 37 92 50 144 21 85 23 118 23 315 -1 193 -3 230 -22 299 -27 97 -69 171
-128 225 -84 78 -96 81 -376 81 -241 0 -248 -1 -248 -20z m455 -45 l25 -24 0
-522 c0 -514 0 -521 -21 -550 -18 -26 -26 -30 -63 -27 l-41 3 -3 560 c-1 308
0 566 3 573 8 22 74 14 100 -13z"/>
<path d="M1568 2478 c-21 -5 -56 -27 -79 -47 -38 -33 -42 -43 -47 -92 -2 -30
1 -73 7 -96 13 -49 60 -93 99 -93 39 1 109 35 122 61 16 30 17 108 1 146 -20
50 -12 77 25 81 58 6 64 -11 64 -182 l0 -152 -91 -11 c-96 -13 -151 -37 -201
-90 -76 -80 -97 -239 -45 -346 22 -44 36 -60 71 -76 86 -42 177 -14 230 72
l30 49 16 -48 c21 -67 51 -86 145 -92 l76 -5 -3 409 c-3 408 -3 409 -26 441
-49 69 -73 78 -222 80 -74 1 -152 -3 -172 -9z m192 -568 c0 -161 -10 -202 -50
-215 -50 -16 -63 29 -55 189 7 117 10 132 31 153 13 12 35 23 49 23 l25 0 0
-150z"/>
<path d="M2916 2475 c-94 -34 -130 -87 -123 -182 7 -101 54 -150 133 -138 96
14 133 89 98 198 -9 30 -14 62 -11 71 7 18 49 21 78 6 18 -10 19 -23 19 -169
l0 -159 -67 -6 c-106 -11 -161 -33 -213 -85 -57 -57 -80 -119 -80 -215 0 -96
15 -144 59 -187 79 -80 206 -58 269 46 15 24 30 45 35 45 4 0 7 -15 7 -34 0
-69 59 -106 168 -106 l52 0 0 401 c0 386 -1 403 -21 438 -11 20 -36 48 -56 61
-34 23 -46 25 -172 27 -99 2 -147 -1 -175 -12z m194 -575 c0 -159 0 -161 -25
-186 -31 -31 -55 -28 -73 9 -10 21 -12 57 -6 153 6 113 9 129 31 155 15 17 35
29 49 29 l24 0 0 -160z"/>
<path d="M450 1295 l0 -135 1550 0 1550 0 0 135 0 135 -1550 0 -1550 0 0 -135z"/>
</g>
</svg>
